<?xml version="1.0" encoding="UTF-8" standalone="no"?>
<svg
   xmlns:dc="http://purl.org/dc/elements/1.1/"
   xmlns:cc="http://creativecommons.org/ns#"
   xmlns:rdf="http://www.w3.org/1999/02/22-rdf-syntax-ns#"
   xmlns:svg="http://www.w3.org/2000/svg"
   xmlns="http://www.w3.org/2000/svg"
   xmlns:sodipodi="http://sodipodi.sourceforge.net/DTD/sodipodi-0.dtd"
   xmlns:inkscape="http://www.inkscape.org/namespaces/inkscape"
   width="293.51111mm"
   height="54.070866mm"
   viewBox="0 0 1040 191.58968"
   id="svg2"
   version="1.1"
   inkscape:version="1.0.2-2 (e86c870879, 2021-01-15)"
   sodipodi:docname="title.svg"
   inkscape:export-filename="C:\Users\Brandon\useofyork logo2.png"
   inkscape:export-xdpi="90"
   inkscape:export-ydpi="90">
  <defs
     id="defs4">
    <inkscape:path-effect
       effect="spiro"
       id="path-effect4191"
       is_visible="true" />
    <inkscape:path-effect
       effect="spiro"
       id="path-effect4296"
       is_visible="true" />
    <inkscape:path-effect
       is_visible="true"
       id="path-effect4292"
       effect="spiro" />
    <inkscape:path-effect
       effect="spiro"
       id="path-effect4288"
       is_visible="true" />
    <inkscape:path-effect
       effect="spiro"
       id="path-effect4237"
       is_visible="true" />
    <inkscape:path-effect
       is_visible="true"
       id="path-effect4233"
       effect="spiro" />
    <inkscape:path-effect
       effect="spiro"
       id="path-effect4229"
       is_visible="true" />
    <inkscape:path-effect
       is_visible="true"
       id="path-effect4225"
       effect="spiro" />
    <inkscape:path-effect
       effect="spiro"
       id="path-effect4221"
       is_visible="true" />
    <inkscape:path-effect
       effect="spiro"
       id="path-effect4217"
       is_visible="true" />
    <inkscape:path-effect
       effect="spiro"
       id="path-effect4213"
       is_visible="true" />
    <inkscape:path-effect
       effect="spiro"
       id="path-effect4209"
       is_visible="true" />
    <inkscape:path-effect
       effect="spiro"
       id="path-effect4205"
       is_visible="true" />
    <inkscape:path-effect
       effect="spiro"
       id="path-effect4201"
       is_visible="true" />
    <inkscape:path-effect
       effect="spiro"
       id="path-effect4197"
       is_visible="true" />
    <inkscape:path-effect
       effect="spiro"
       id="path-effect4193"
       is_visible="true" />
    <inkscape:path-effect
       effect="spiro"
       id="path-effect4189"
       is_visible="true" />
    <inkscape:path-effect
       effect="spiro"
       id="path-effect4185"
       is_visible="true" />
    <inkscape:path-effect
       effect="spiro"
       id="path-effect4181"
       is_visible="true" />
    <inkscape:path-effect
       effect="spiro"
       id="path-effect4177"
       is_visible="true" />
    <inkscape:path-effect
       effect="spiro"
       id="path-effect4173"
       is_visible="true" />
    <inkscape:path-effect
       effect="spiro"
       id="path-effect4169"
       is_visible="true" />
    <inkscape:path-effect
       effect="spiro"
       id="path-effect4165"
       is_visible="true" />
    <inkscape:path-effect
       effect="spiro"
       id="path-effect4161"
       is_visible="true" />
    <inkscape:path-effect
       effect="spiro"
       id="path-effect4157"
       is_visible="true" />
    <inkscape:path-effect
       effect="spiro"
       id="path-effect4153"
       is_visible="true" />
    <inkscape:path-effect
       effect="spiro"
       id="path-effect4149"
       is_visible="true" />
  </defs>
  <sodipodi:namedview
     id="base"
     pagecolor="#ffffff"
     bordercolor="#666666"
     borderopacity="1.0"
     inkscape:pageopacity="0.0"
     inkscape:pageshadow="2"
     inkscape:zoom="0.98994949"
     inkscape:cx="551.34251"
     inkscape:cy="227.95931"
     inkscape:document-units="px"
     inkscape:current-layer="g4243"
     showgrid="false"
     showguides="true"
     inkscape:guide-bbox="true"
     inkscape:window-width="1920"
     inkscape:window-height="1027"
     inkscape:window-x="-8"
     inkscape:window-y="-8"
     inkscape:window-maximized="1"
     fit-margin-top="0"
     fit-margin-left="0"
     fit-margin-right="0"
     fit-margin-bottom="0"
     inkscape:document-rotation="0">
    <sodipodi:guide
       position="1457.7535,-1063.0653"
       orientation="0,1"
       id="guide4284" />
  </sodipodi:namedview>
  <metadata
     id="metadata7">
    <rdf:RDF>
      <cc:Work
         rdf:about="">
        <dc:format>image/svg+xml</dc:format>
        <dc:type
           rdf:resource="http://purl.org/dc/dcmitype/StillImage" />
        <dc:title />
      </cc:Work>
    </rdf:RDF>
  </metadata>
  <g
     inkscape:label="Layer 1"
     inkscape:groupmode="layer"
     id="layer1"
     transform="translate(883.98686,580.08991)">
    <g
       id="g4243"
       transform="matrix(1.0744205,0,0,0.64834614,-530.80217,-873.22387)">
      <path
         sodipodi:nodetypes="cscssscsssssc"
         inkscape:connector-curvature="0"
         inkscape:original-d="m 329.82143,453.96935 c 0,0 -18.51501,8.13358 -25.71429,13.21428 -6.32786,4.46572 -16.60714,16.25 -16.60714,16.25 0,0 5.72066,8.07675 7.85714,10.35714 5.33547,5.69485 9.14547,5.55381 16.78572,7.14286 9.91321,2.06178 21.37312,2.37783 30.89285,-1.07143 7.21301,-2.61347 24.89956,-24.46427 24.89956,-24.46427 0,0 -20.90818,14.58454 -27.97991,14.83258 -7.94194,0.27857 -27.33494,-3.47131 -34.95536,-5.72545 -5.26242,-1.55664 -1.66769,1.03992 -4.64286,-3.57143 -1.35535,-2.10072 -0.0531,-5.65642 0.71429,-8.03571 0.56289,-1.74514 7.70575,-6.78978 14.52931,-11.041 6.82356,-4.25121 14.22069,-7.88757 14.22069,-7.88757 z"
         inkscape:path-effect="#path-effect4149"
         id="path4147"
         d="m 329.82143,453.96935 c -9.22497,2.93814 -17.95484,7.42432 -25.71429,13.21428 -6.22579,4.64558 -11.82734,10.12665 -16.60714,16.25 1.70203,4.03446 4.43046,7.63103 7.85714,10.35714 4.80133,3.81972 10.7894,5.84397 16.78572,7.14286 10.2038,2.2103 21.07158,2.47053 30.89285,-1.07143 11.29104,-4.07202 20.62906,-13.24679 24.89956,-24.46427 -7.37914,7.81172 -17.37302,13.10963 -27.97991,14.83258 -11.83478,1.92241 -24.13073,-0.56938 -34.95536,-5.72545 -0.89518,-0.4264 -1.78578,-0.87299 -2.59663,-1.44367 -0.81086,-0.57068 -1.544,-1.27282 -2.04623,-2.12776 -0.71479,-1.21677 -0.92263,-2.69106 -0.73969,-4.09034 0.18293,-1.39927 0.73688,-2.72997 1.45398,-3.94537 1.56785,-2.65733 3.90415,-4.79285 6.45503,-6.52852 2.55088,-1.73567 5.3301,-3.10215 8.07428,-4.51248 4.82192,-2.47816 9.56533,-5.10911 14.22069,-7.88757 z"
         style="fill:#000000;fill-opacity:1;fill-rule:evenodd;stroke:#000000;stroke-width:1px;stroke-linecap:butt;stroke-linejoin:miter;stroke-opacity:1" />
      <path
         sodipodi:nodetypes="csccccscsc"
         inkscape:connector-curvature="0"
         inkscape:original-d="m 367.92411,475.3756 c 0,0 -15.25737,22.09769 -23.45982,32.52232 -8.69131,11.04594 -27.5,31.96428 -27.5,31.96428 7.32997,24.94435 16.29778,46.3427 20.35714,58.21429 8.41803,24.89559 26.96429,89.28571 26.96429,89.28571 l -0.89286,-48.75 c 0,0 -11.44114,-27.26149 -16.78571,-52.14286 C 302.13547,379.43376 326.25,537.71935 326.25,537.71935 c 0,0 14.00285,-16.0502 20,-24.82143 8.09665,-11.84188 21.67411,-37.52232 21.67411,-37.52232 z"
         inkscape:path-effect="#path-effect4153"
         id="path4151"
         d="m 367.92411,475.3756 c -7.36331,11.1606 -15.19232,22.01395 -23.45982,32.52232 -8.69356,11.04991 -17.87198,21.71833 -27.5,31.96428 7.11801,19.28642 13.90506,38.695 20.35714,58.21429 9.75846,29.52196 18.75059,59.29723 26.96429,89.28571 l -0.89286,-48.75 c -4.84744,-17.60995 -10.44952,-35.01216 -16.78571,-52.14286 -6.11069,-16.52102 -12.90412,-32.7895 -20.35715,-48.74999 7.19851,-7.8258 13.88421,-16.12323 20,-24.82143 8.31877,-11.8314 15.58165,-24.40493 21.67411,-37.52232 z"
         style="fill:#000000;fill-opacity:1;fill-rule:evenodd;stroke:#000000;stroke-width:1px;stroke-linecap:butt;stroke-linejoin:miter;stroke-opacity:1" />
      <path
         sodipodi:nodetypes="cssssscssccsscssscc"
         inkscape:connector-curvature="0"
         inkscape:original-d="m 367.94806,475.31256 c 0,0 1.23873,-0.44243 2.27285,40.53238 0.45293,17.94632 3.1106,127.91211 4.92599,166.55491 1.81538,38.64281 2.78847,5.96263 -1.13792,23.48003 -1.861,8.30277 -6.2749,15.98062 -11.11168,22.98097 -1.91241,2.76787 -5.48281,4.2936 -6.9448,7.32361 -1.57012,3.25411 -1.51523,10.73287 -1.51523,10.73287 0,0 -8.99547,-5.16447 -11.99556,-9.21764 -2.13949,-2.89048 -1.88403,-20.63332 -2.27021,-24.20867 -1.13714,-10.52807 3.02783,-17.33386 3.02783,-17.33386 l 3.28299,2.27285 c 0,0 -3.10352,2.15154 -1.42594,8.04115 0.77484,2.72028 2.75128,15.32136 4.96148,17.08639 1.79661,1.43474 6.31345,2.77792 6.31345,2.77792 0,0 4.30332,-6.16906 5.3033,-9.72272 3.24182,-11.52056 1.62765,-23.89325 1.76777,-35.86041 0.49591,-42.35347 -1.38069,-84.71306 -3.283,-127.02669 -0.88649,-19.71849 -3.78807,-59.09392 -3.78807,-59.09392 z"
         inkscape:path-effect="#path-effect4157"
         id="path4155"
         d="m 367.94806,475.31256 c 0.8461,13.50564 1.60374,27.01682 2.27285,40.53238 2.74649,55.4772 4.00093,111.01747 4.92599,166.55491 0.13072,7.84794 0.25038,15.75475 -1.13792,23.48003 -1.52833,8.50451 -5.01708,16.85575 -11.11168,22.98097 -2.37983,2.39179 -5.15971,4.46045 -6.9448,7.32361 -1.96817,3.15682 -2.53256,7.15457 -1.51523,10.73287 -4.99365,-1.35179 -9.40354,-4.74044 -11.99556,-9.21764 -2.0705,-3.57638 -2.97889,-7.73468 -3.16802,-11.86283 -0.18913,-4.12816 0.31099,-8.25523 0.89781,-12.34584 0.83304,-5.8069 1.84294,-11.58842 3.02783,-17.33386 l 3.28299,2.27285 c -0.68865,2.63666 -1.16599,5.32847 -1.42594,8.04115 -0.29427,3.07079 -0.30601,6.20246 0.41079,9.20288 0.7168,3.00042 2.20779,5.87674 4.55069,7.88351 1.77158,1.51741 3.99784,2.49696 6.31345,2.77792 2.22679,-2.96082 4.01953,-6.24752 5.3033,-9.72272 4.18362,-11.3252 2.79262,-23.83076 1.76777,-35.86041 -3.59626,-42.21296 -1.95572,-84.68161 -3.283,-127.02669 -0.61849,-19.73223 -1.88208,-39.44423 -3.78807,-59.09392 l 11.61675,-19.31917 z"
         style="fill:#000000;fill-opacity:1;fill-rule:evenodd;stroke:#000000;stroke-width:1px;stroke-linecap:butt;stroke-linejoin:miter;stroke-opacity:1" />
      <path
         sodipodi:nodetypes="cscscscsc"
         inkscape:connector-curvature="0"
         inkscape:original-d="m 342.41072,699.68363 c 0,0 1.06323,-6.11362 2.41071,-10.80357 0.54639,-1.90173 2.5,-9.10714 2.5,-9.10714 0,0 4.32222,1.69878 6.25,2.94643 2.26048,1.46297 6.25,4.91071 6.25,4.91071 0,0 8.35645,12.8411 -2.85714,9.375 -2.90715,-0.89859 -1.33929,8.57143 -1.33929,8.57143 0,0 -4.32325,-2.78055 -6.96428,-3.83928 -2.00123,-0.80225 -6.25,-2.05358 -6.25,-2.05358 z"
         inkscape:path-effect="#path-effect4161"
         id="path4159"
         d="m 342.41072,699.68363 c 0.7094,-3.62135 1.51333,-7.22417 2.41071,-10.80357 0.7656,-3.05377 1.59921,-6.09048 2.5,-9.10714 2.17863,0.7602 4.27723,1.74954 6.25,2.94643 2.27068,1.37764 4.37425,3.03044 6.25,4.91071 -1.18407,3.04804 -2.13999,6.18467 -2.85714,9.375 -0.63468,2.82346 -1.08241,5.68893 -1.33929,8.57143 -2.18281,-1.51214 -4.52035,-2.80079 -6.96428,-3.83928 -2.02065,-0.85863 -4.11387,-1.5464 -6.25,-2.05358 z"
         style="fill:#000000;fill-opacity:1;fill-rule:evenodd;stroke:#000000;stroke-width:1px;stroke-linecap:butt;stroke-linejoin:miter;stroke-opacity:1" />
      <path
         sodipodi:nodetypes="cscscsc"
         inkscape:connector-curvature="0"
         inkscape:original-d="m 341.06245,575.96427 c 0,0 3.20401,-2.75764 4.5302,-4.38925 1.4845,-1.82636 3.77337,-5.9679 3.77337,-5.9679 0,0 6.99053,7.67438 7.41072,12.5 0.45265,5.19843 -5.53572,14.64286 -5.53572,14.64286 0,0 -0.28307,-8.54412 -2.58928,-11.875 -1.71523,-2.47732 -7.58929,-4.91071 -7.58929,-4.91071 z"
         inkscape:path-effect="#path-effect4165"
         id="path4163"
         d="m 341.06245,575.96427 c 1.66758,-1.28787 3.19028,-2.7632 4.5302,-4.38925 1.50066,-1.82112 2.77166,-3.8313 3.77337,-5.9679 4.10916,2.84292 6.88832,7.53065 7.41072,12.5 0.56582,5.38235 -1.55072,10.98094 -5.53572,14.64286 0.9831,-4.07536 0.001,-8.57883 -2.58928,-11.875 -1.89617,-2.41277 -4.61141,-4.16969 -7.58929,-4.91071 z"
         style="fill:#000000;fill-opacity:1;fill-rule:evenodd;stroke:#000000;stroke-width:1px;stroke-linecap:butt;stroke-linejoin:miter;stroke-opacity:1" />
      <path
         sodipodi:nodetypes="cscscc"
         inkscape:connector-curvature="0"
         inkscape:original-d="m 360.24565,525.94646 c 0,0 -3.60872,8.49078 -6.06091,12.37437 -2.78304,4.40757 -9.72272,12.2481 -9.72272,12.2481 0,0 5.92181,-0.31612 8.71256,0.50507 4.26709,1.25561 11.61676,6.56599 11.61676,6.56599 z"
         inkscape:path-effect="#path-effect4169"
         id="path4167"
         d="m 360.24565,525.94646 c -1.59718,4.31466 -3.63121,8.46748 -6.06091,12.37437 -2.75887,4.43619 -6.02818,8.55466 -9.72272,12.2481 2.90311,-0.35538 5.86996,-0.18339 8.71256,0.50507 4.37872,1.06051 8.44982,3.36156 11.61676,6.56599 l -4.54569,-31.69353 z"
         style="fill:#000000;fill-opacity:1;fill-rule:evenodd;stroke:#000000;stroke-width:1px;stroke-linecap:butt;stroke-linejoin:miter;stroke-opacity:1" />
      <path
         sodipodi:nodetypes="cssscsscc"
         inkscape:connector-curvature="0"
         inkscape:original-d="m 327.7945,534.40649 c 0,0 4.85878,-1.01521 7.32361,-1.26269 2.84901,-0.28605 5.96345,0.8961 8.58629,-0.25254 2.53553,-1.1104 4.42304,-3.53824 5.80838,-5.93465 1.24711,-2.15731 1.76777,-5.42957 1.76777,-5.42957 0,0 -2.17844,1.68537 -4.04061,2.39911 -1.0226,0.39195 -2.28622,0.32734 -3.283,-0.12627 -1.78868,-0.81399 -4.04061,-4.29314 -4.04061,-4.29314 z"
         inkscape:path-effect="#path-effect4173"
         id="path4171"
         d="m 327.7945,534.40649 c 2.33225,-0.87814 4.83195,-1.30912 7.32361,-1.26269 1.44193,0.0269 2.87668,0.21161 4.31787,0.26519 1.44119,0.0536 2.91152,-0.0292 4.26842,-0.51773 1.33588,-0.481 2.51575,-1.34348 3.47748,-2.38799 0.96173,-1.04451 1.7135,-2.26809 2.3309,-3.54666 0.83018,-1.71922 1.42661,-3.55113 1.76777,-5.42957 -1.03447,1.21413 -2.47943,2.07208 -4.04061,2.39911 -1.08342,0.22695 -2.22546,0.20072 -3.283,-0.12627 -0.9817,-0.30354 -1.88228,-0.86539 -2.58653,-1.61365 -0.70425,-0.74827 -1.21053,-1.68121 -1.45408,-2.67949 l -12.12183,14.89975 z"
         style="fill:#000000;fill-opacity:1;fill-rule:evenodd;stroke:#000000;stroke-width:1px;stroke-linecap:butt;stroke-linejoin:miter;stroke-opacity:1" />
      <path
         sodipodi:nodetypes="cssssssc"
         inkscape:connector-curvature="0"
         inkscape:original-d="m 316.55655,472.21897 c 0,0 1.20277,1.71031 2.02031,2.33598 1.50243,1.14983 4.13282,0.84456 5.1139,2.46224 0.68787,1.13421 0.44537,2.78048 -0.12627,3.97748 -0.69448,1.45423 -2.07658,2.86668 -3.66181,3.15673 -2.35757,0.43137 -5.21426,-0.62673 -6.75539,-2.46225 -0.8521,-1.01487 -0.99697,-2.62417 -0.69448,-3.91434 0.52556,-2.24158 4.10374,-5.55584 4.10374,-5.55584 z"
         inkscape:path-effect="#path-effect4177"
         id="path4175"
         d="m 316.55655,472.21897 c 0.37436,0.98169 1.10285,1.824 2.02031,2.33598 0.84045,0.469 1.80319,0.65662 2.72122,0.94564 0.45902,0.14452 0.91207,0.3167 1.32747,0.55966 0.41539,0.24296 0.79355,0.55973 1.06521,0.95694 0.39394,0.576 0.5439,1.29802 0.49364,1.99403 -0.0503,0.69601 -0.29055,1.36824 -0.61991,1.98345 -0.7791,1.45526 -2.09613,2.63383 -3.66181,3.15673 -1.23096,0.41111 -2.59969,0.41003 -3.82183,-0.0266 -1.22214,-0.43663 -2.28739,-1.31017 -2.93356,-2.43566 -0.67188,-1.17028 -0.8791,-2.57759 -0.69448,-3.91434 0.32846,-2.37817 1.92725,-4.54269 4.10374,-5.55584 z"
         style="fill:#000000;fill-opacity:1;fill-rule:evenodd;stroke:#000000;stroke-width:1px;stroke-linecap:butt;stroke-linejoin:miter;stroke-opacity:1" />
      <path
         sodipodi:nodetypes="csscsccscsssc"
         inkscape:connector-curvature="0"
         inkscape:original-d="m 372.99882,700.82912 c 0,0 17.15794,-26.8604 22.72844,-41.66879 6.10477,-16.22867 9.79869,-85.00986 11.36422,-102.27795 3.27838,-36.16122 -4.29315,-57.32616 -4.29315,-57.32616 0,0 -7.9304,-6.12067 -12.24245,-8.84775 -4.23207,-2.67651 -13.2639,-7.31469 -13.2639,-7.31469 l 11.36421,-11.11168 c 0,0 9.86659,5.60704 14.66247,8.63581 4.80537,3.03476 14.12688,9.54694 14.12688,9.54694 0,0 4.36225,38.97862 3.53553,71.21576 -0.35917,14.00564 -2.26953,58.10147 -5.55584,71.72083 -3.68945,15.29011 -8.74952,25.85991 -17.17259,39.14341 -6.7685,10.67418 -25.25382,28.28427 -25.25382,28.28427 z"
         inkscape:path-effect="#path-effect4181"
         id="path4179"
         d="m 372.99882,700.82912 c 9.60392,-12.648 17.29403,-26.74651 22.72844,-41.66879 11.8148,-32.44207 12.74078,-67.77893 11.36422,-102.27795 -0.76415,-19.15088 -2.19636,-38.27509 -4.29315,-57.32616 -3.89638,-3.19385 -7.98726,-6.15038 -12.24245,-8.84775 -4.26708,-2.70491 -8.69935,-5.14919 -13.2639,-7.31469 l 11.36421,-11.11168 c 4.97511,2.72626 9.86573,5.6067 14.66247,8.63581 4.80624,3.03511 9.51822,6.21946 14.12688,9.54694 1.77472,23.70398 2.95373,47.45256 3.53553,71.21576 0.5889,24.05342 0.52746,48.44193 -5.55584,71.72083 -3.61802,13.84505 -9.35881,27.15507 -17.17259,39.14341 -6.92787,10.62914 -15.47436,20.2012 -25.25382,28.28427 z"
         style="fill:#000000;fill-opacity:1;fill-rule:evenodd;stroke:#000000;stroke-width:1px;stroke-linecap:butt;stroke-linejoin:miter;stroke-opacity:1" />
      <path
         inkscape:connector-curvature="0"
         inkscape:original-d="m 366.96429,488.79077 21.60714,-16.42857 -22.14286,21.60715 z"
         inkscape:path-effect="#path-effect4185"
         id="path4183"
         d="m 366.96429,488.79077 21.60714,-16.42857 -22.14286,21.60715 0.53572,-5.17858 z"
         style="fill:#000000;fill-opacity:1;fill-rule:evenodd;stroke:#000000;stroke-width:1px;stroke-linecap:butt;stroke-linejoin:miter;stroke-opacity:1" />
      <path
         sodipodi:nodetypes="cssssccsssc"
         inkscape:connector-curvature="0"
         inkscape:original-d="m 373.03572,725.75506 c 0,0 12.94084,-20.89772 20.18041,-31.42795 8.37754,-12.18545 21.5292,-22.78543 26.78387,-36.60776 6.46132,-16.99641 4.86713,-36.10919 5.35714,-54.28572 0.75787,-28.11282 -2.34903,-71.59948 -4.46429,-99.64285 -0.7609,-10.08776 -1.07142,-14.10714 -1.07142,-14.10714 l 4.64286,-0.17858 c 0,0 2.17116,41.0608 2.85714,61.60714 0.77875,23.3252 1.9413,28.18685 -0.17857,51.42857 -0.86101,9.43988 -1.62576,37.28006 -4.10714,46.42858 -0.87217,3.21556 -3.21429,9.46428 -3.21429,9.46428"
         inkscape:path-effect="#path-effect4189"
         id="path4187"
         d="m 373.03572,725.75506 c 5.58868,-11.1511 12.36613,-21.70595 20.18041,-31.42795 9.50759,-11.8287 20.7164,-22.6974 26.78387,-36.60776 7.33923,-16.82603 6.25361,-35.95062 5.35714,-54.28572 -1.62371,-33.20911 -2.1887,-66.47203 -4.46429,-99.64285 -0.32277,-4.70491 -0.67992,-9.40745 -1.07142,-14.10714 l 4.64286,-0.17858 c 1.66799,20.49419 2.62114,41.04654 2.85714,61.60714 0.19676,17.14209 -0.1048,34.28551 -0.17857,51.42857 -0.0671,15.5853 0.0251,31.40091 -4.10714,46.42858 -0.88386,3.21437 -1.95778,6.37647 -3.21429,9.46428"
         style="fill:#000000;fill-opacity:1;fill-rule:evenodd;stroke:#000000;stroke-width:1px;stroke-linecap:butt;stroke-linejoin:miter;stroke-opacity:1" />
      <path
         sodipodi:nodetypes="cssccscc"
         inkscape:connector-curvature="0"
         inkscape:original-d="m 424.45347,489.26529 c 0,0 -0.49677,-4.76696 -1.89403,-6.56599 -1.63168,-2.10086 -4.25143,-3.64332 -6.88167,-4.04061 -1.81705,-0.27446 -5.36643,1.26269 -5.36643,1.26269 l 1.07328,5.3033 c 0,0 2.71191,-0.52886 3.85121,0.0631 1.52401,0.79185 4.45903,4.16688 4.45903,4.16688 z"
         inkscape:path-effect="#path-effect4193"
         id="path4191"
         d="m 424.45347,489.26529 c 0.13162,-2.31801 -0.54805,-4.67421 -1.89403,-6.56599 -1.59138,-2.23668 -4.14693,-3.80309 -6.88167,-4.04061 -1.86194,-0.16171 -3.77195,0.2877 -5.36643,1.26269 l 1.07328,5.3033 c 1.25574,-0.33989 2.60728,-0.31774 3.85121,0.0631 2.01379,0.61654 3.70765,2.19942 4.45903,4.16688 l 4.75861,-0.18937 z"
         style="fill:#000000;fill-opacity:1;fill-rule:evenodd;stroke:#000000;stroke-width:1px;stroke-linecap:butt;stroke-linejoin:miter;stroke-opacity:1" />
      <path
         sodipodi:nodetypes="cssssccssssc"
         inkscape:connector-curvature="0"
         inkscape:original-d="m 380.19616,475.37569 c 0,0 6.51006,-8.90587 9.47019,-10.9854 2.76088,-1.93956 5.90714,-4.09492 9.28077,-4.04061 2.25897,0.0364 4.47733,1.35739 6.12405,2.90419 3.4535,3.24395 5.54587,7.89157 6.88167,12.4375 1.16544,3.96617 0.82074,12.37437 0.82074,12.37437 l -2.2097,-0.69448 c 0,0 -0.25888,-6.87817 -1.57837,-9.97526 -1.62499,-3.81416 -4.05822,-7.62022 -7.51301,-9.91212 -1.99056,-1.32053 -4.57297,-2.0516 -6.9448,-1.76777 -3.92596,0.46981 -7.00248,3.67477 -10.48033,5.55584 -0.61309,0.33161 -3.85121,4.10374 -3.85121,4.10374 z"
         inkscape:path-effect="#path-effect4197"
         id="path4195"
         d="m 380.19616,475.37569 c 2.57609,-4.11317 5.78146,-7.8314 9.47019,-10.9854 1.3169,-1.126 2.70648,-2.18776 4.26136,-2.95224 1.55489,-0.76448 3.29195,-1.22244 5.01941,-1.08837 2.29258,0.17793 4.40111,1.38135 6.12405,2.90419 3.60639,3.18756 5.75463,7.75815 6.88167,12.4375 0.97266,4.03838 1.25153,8.24291 0.82074,12.37437 l -2.2097,-0.69448 c 0.0946,-3.38438 -0.44359,-6.78539 -1.57837,-9.97526 -1.41776,-3.98531 -3.88203,-7.74217 -7.51301,-9.91212 -2.08214,-1.24433 -4.52452,-1.92869 -6.9448,-1.76777 -2.01374,0.13389 -3.96128,0.84241 -5.70881,1.85196 -1.74754,1.00954 -3.30767,2.31456 -4.77152,3.70388 -1.36144,1.29212 -2.64804,2.66309 -3.85121,4.10374 z"
         style="fill:#000000;fill-opacity:1;fill-rule:evenodd;stroke:#000000;stroke-width:1px;stroke-linecap:butt;stroke-linejoin:miter;stroke-opacity:1" />
      <path
         sodipodi:nodetypes="cssssscssssc"
         inkscape:connector-curvature="0"
         inkscape:original-d="m 357.78341,474.68122 c 0,0 4.34093,-7.90972 7.38674,-11.17482 2.85682,-3.06252 5.9519,-6.47604 9.97525,-7.63927 1.56312,-0.45193 3.5263,-0.48822 4.86136,0.44194 1.20487,0.83945 1.61065,2.5366 1.89404,3.97747 0.87049,4.42588 -0.61686,9.00232 -0.75762,13.51079 -0.10245,3.28147 -0.0631,9.84899 -0.0631,9.84899 0,0 -0.83421,-10.33433 -2.08344,-15.34169 -0.49964,-2.00273 -0.63671,-4.40095 -2.14658,-5.80838 -0.7697,-0.71748 -1.99098,-1.04729 -3.03045,-0.88388 -2.26033,0.35534 -3.87668,2.44558 -5.68211,3.8512 -3.64613,2.8387 -10.35409,9.21765 -10.35409,9.21765 z"
         inkscape:path-effect="#path-effect4201"
         id="path4199"
         d="m 357.78341,474.68122 c 2.07522,-3.96233 4.55443,-7.71294 7.38674,-11.17482 1.34666,-1.646 2.77983,-3.23352 4.42413,-4.58226 1.6443,-1.34874 3.51074,-2.45729 5.55112,-3.05701 0.81029,-0.23817 1.65302,-0.39582 2.49664,-0.35579 0.84362,0.04 1.69142,0.28787 2.36472,0.79773 0.60078,0.45495 1.03969,1.09973 1.33374,1.7936 0.29405,0.69388 0.45066,1.43828 0.5603,2.18387 0.65826,4.47649 -0.32594,9.0068 -0.75762,13.51079 -0.31364,3.27242 -0.33479,6.57282 -0.0631,9.84899 -0.89708,-5.08365 -1.59229,-10.20292 -2.08344,-15.34169 -0.10103,-1.05707 -0.19494,-2.12305 -0.49489,-3.14169 -0.29996,-1.01863 -0.82501,-2.00021 -1.65169,-2.66669 -0.83982,-0.67706 -1.95628,-0.98325 -3.03045,-0.88388 -1.167,0.10795 -2.25386,0.66805 -3.17747,1.3895 -0.9236,0.72146 -1.70647,1.60352 -2.50464,2.4617 -3.15167,3.38862 -6.62347,6.47936 -10.35409,9.21765 z"
         style="fill:#000000;fill-opacity:1;fill-rule:evenodd;stroke:#000000;stroke-width:1px;stroke-linecap:butt;stroke-linejoin:miter;stroke-opacity:1" />
      <path
         sodipodi:nodetypes="cssssccssssc"
         inkscape:connector-curvature="0"
         inkscape:original-d="m 334.86557,473.5448 c 0,0 4.59619,-8.07238 7.95495,-11.17482 2.46828,-2.27992 5.28974,-5.12286 8.64943,-5.17703 1.51649,-0.0245 3.00887,1.0426 3.97748,2.20971 2.16755,2.61174 2.19758,6.42317 3.21986,9.65958 1.39581,4.41896 3.97747,13.32139 3.97747,13.32139 l -2.46224,1.38896 c 0,0 -2.17205,-5.45444 -3.34613,-8.14436 -1.36352,-3.12394 -2.21771,-6.57693 -4.29315,-9.28077 -0.80065,-1.04307 -1.73655,-2.29122 -3.03046,-2.52538 -2.19402,-0.39705 -4.39553,1.07262 -6.31345,2.20971 -3.2172,1.9074 -8.33376,7.51301 -8.33376,7.51301 z"
         inkscape:path-effect="#path-effect4205"
         id="path4203"
         d="m 334.86557,473.5448 c 2.41984,-3.88292 5.07814,-7.6172 7.95495,-11.17482 1.10572,-1.36739 2.26081,-2.72463 3.69877,-3.73687 1.43796,-1.01225 3.20579,-1.65881 4.95066,-1.44016 1.538,0.19273 2.94825,1.05072 3.97748,2.20971 1.14342,1.28758 1.83934,2.91782 2.28285,4.58173 0.4435,1.6639 0.65177,3.37964 0.93701,5.07785 0.76958,4.58183 2.10896,9.06767 3.97747,13.32139 l -2.46224,1.38896 c -1.2006,-2.67872 -2.31672,-5.39531 -3.34613,-8.14436 -1.1991,-3.20223 -2.30598,-6.4981 -4.29315,-9.28077 -0.38913,-0.54491 -0.81257,-1.06959 -1.31193,-1.51567 -0.49935,-0.44608 -1.07852,-0.8129 -1.71853,-1.00971 -1.11079,-0.34158 -2.33269,-0.14644 -3.39923,0.31511 -1.06653,0.46156 -2.00351,1.1727 -2.91422,1.8946 -2.93296,2.32487 -5.71833,4.83592 -8.33376,7.51301 z"
         style="fill:#000000;fill-opacity:1;fill-rule:evenodd;stroke:#000000;stroke-width:1px;stroke-linecap:butt;stroke-linejoin:miter;stroke-opacity:1" />
      <path
         sodipodi:nodetypes="csssssccsssssscc"
         inkscape:connector-curvature="0"
         inkscape:original-d="m 312.64221,463.38014 c 0,0 5.01472,-2.70604 6.39508,-2.79719 2.96408,-0.19572 3.37115,-0.56749 6.2025,-1.46609 1.28439,-0.40764 2.48114,0.45032 3.69113,1.04341 1.33741,0.65555 1.35928,2.67143 1.76777,4.10375 1.16726,4.09286 1.64958,8.37788 1.89404,12.62691 0.32051,5.57089 -0.56821,16.73065 -0.56821,16.73065 l 2.39911,-0.75762 c 0,0 0.84718,-7.39972 1.13642,-11.11168 0.33563,-4.30734 0.84851,-8.62493 0.69448,-12.94258 -0.16258,-4.55728 0.46407,-9.56244 -1.70463,-13.57392 -0.52541,-0.97187 -1.48054,-1.78754 -2.52538,-2.14657 -1.87254,-0.64345 -3.95593,-0.24842 -5.87152,0.25253 -3.37813,0.88342 -6.24329,3.47424 -9.21764,5.3033 -2.17998,1.34056 -6.24266,4.33462 -6.24266,4.33462 z"
         inkscape:path-effect="#path-effect4209"
         id="path4207"
         d="m 312.64221,463.38014 c 2.07901,-1.04714 4.21489,-1.98137 6.39508,-2.79719 1.99899,-0.74801 4.06909,-1.40262 6.2025,-1.46609 0.6544,-0.0195 1.31458,0.0177 1.95013,0.17487 0.63554,0.15714 1.2475,0.43834 1.741,0.86854 0.57272,0.49925 0.96467,1.17937 1.22669,1.89254 0.26202,0.71316 0.40252,1.46418 0.54108,2.21121 0.77651,4.18642 1.52838,8.38481 1.89404,12.62691 0.48037,5.57283 0.28914,11.20325 -0.56821,16.73065 l 2.39911,-0.75762 c 0.52931,-3.68644 0.90854,-7.39442 1.13642,-11.11168 0.26438,-4.31258 0.32519,-8.63771 0.69448,-12.94258 0.19947,-2.32533 0.48916,-4.6551 0.36336,-6.98557 -0.1258,-2.33048 -0.6986,-4.69845 -2.06799,-6.58835 -0.6559,-0.90521 -1.50231,-1.69609 -2.52538,-2.14657 -0.91895,-0.40463 -1.9481,-0.51997 -2.94892,-0.43914 -1.00083,0.0808 -1.97794,0.35136 -2.9226,0.69167 -3.3453,1.20512 -6.30081,3.26973 -9.21764,5.3033 -2.07813,1.44884 -4.15902,2.89372 -6.24266,4.33462 l 1.94951,0.40048 z"
         style="fill:#000000;fill-opacity:1;fill-rule:evenodd;stroke:#000000;stroke-width:1px;stroke-linecap:butt;stroke-linejoin:miter;stroke-opacity:1" />
      <path
         sodipodi:nodetypes="csssssc"
         inkscape:connector-curvature="0"
         inkscape:original-d="m 367.67857,489.14792 c 0,0 4.39655,0.82619 5.53572,2.5 13.11028,19.26317 -0.78754,-18.2406 0.89285,5 1.43602,19.86089 6.00742,104.49564 8.21429,124.28571 0.83788,7.51365 2.58326,14.94474 2.85714,22.5 0.36063,9.94837 0.30074,20.05106 -1.60714,29.82143 -1.7858,9.14517 -9.10714,26.42857 -9.10714,26.42857"
         inkscape:path-effect="#path-effect4213"
         id="path4211"
         d="m 367.67857,489.14792 c 1.05973,-0.22723 2.19116,-0.10629 3.17892,0.33979 0.98776,0.44609 1.82658,1.21494 2.3568,2.16021 0.41877,0.74659 0.64431,1.58898 0.75963,2.43719 0.11532,0.84821 0.12407,1.70684 0.13322,2.56281 0.44399,41.54767 2.26833,83.16331 8.21429,124.28571 1.08215,7.48418 2.30147,14.95843 2.85714,22.5 0.73366,9.95728 0.29953,20.0209 -1.60714,29.82143 -1.78522,9.17624 -4.86048,18.10053 -9.10714,26.42857"
         style="fill:none;fill-rule:evenodd;stroke:#000000;stroke-width:3;stroke-linecap:butt;stroke-linejoin:miter;stroke-miterlimit:4;stroke-dasharray:none;stroke-opacity:1" />
      <path
         sodipodi:nodetypes="cssssc"
         inkscape:connector-curvature="0"
         inkscape:original-d="m 374.28572,496.1122 c 0,0 6.42315,-1.91549 9.28571,-0.71428 4.51879,1.8962 7.62224,6.70887 9.46429,11.25 5.33866,13.1612 2.55317,28.30544 3.03571,42.5 0.60468,17.78744 -0.0337,35.59573 -0.17857,53.39286 -0.11238,13.81022 -0.53572,41.42857 -0.53572,41.42857"
         inkscape:path-effect="#path-effect4217"
         id="path4215"
         d="m 374.28572,496.1122 c 2.79403,-1.56903 6.28458,-1.83753 9.28571,-0.71428 2.3672,0.88599 4.37954,2.57496 5.92324,4.57635 1.5437,2.0014 2.64547,4.31007 3.54105,6.67365 5.07108,13.38338 3.66978,28.20215 3.03571,42.5 -0.7886,17.78254 -0.27392,35.5931 -0.17857,53.39286 0.074,13.81125 -0.10463,27.62385 -0.53572,41.42857"
         style="fill:none;fill-rule:evenodd;stroke:#000000;stroke-width:2;stroke-linecap:butt;stroke-linejoin:miter;stroke-miterlimit:4;stroke-dasharray:none;stroke-opacity:1" />
      <path
         sodipodi:nodetypes="cssscsssscc"
         inkscape:connector-curvature="0"
         inkscape:original-d="m 389.60139,500.26267 c 0,0 -0.53411,6.48076 -2.0121,9.24239 -0.62568,1.16909 -1.55937,2.49579 -2.85715,2.76786 -1.33643,0.28018 -2.91929,-0.41953 -3.83928,-1.42857 C 380.12431,510.00142 380,507.54077 380,507.54077 c 0,0 -2.67857,4.10715 -2.67857,6.42858 0,1.54762 0.50401,3.41832 1.78571,4.28571 1.77484,1.20112 4.50301,1.02999 6.42858,0.0893 2.34793,-1.14702 3.5075,-3.94161 4.73214,-6.25 1.03547,-1.9518 2.13203,-6.27616 2.13203,-6.27616 z"
         inkscape:path-effect="#path-effect4221"
         id="path4219"
         d="m 389.60139,500.26267 c 0.22222,3.18799 -0.48473,6.43529 -2.0121,9.24239 -0.32555,0.59832 -0.69062,1.18119 -1.15817,1.67654 -0.46754,0.49535 -1.04468,0.90195 -1.69898,1.09132 -0.69683,0.20168 -1.45891,0.14582 -2.13411,-0.11943 -0.67519,-0.26526 -1.2634,-0.73374 -1.70517,-1.30914 -0.71266,-0.92824 -1.0409,-2.14272 -0.89286,-3.30358 -1.73235,1.64623 -2.72947,4.03933 -2.67857,6.42858 0.017,0.79729 0.14667,1.59679 0.436,2.33992 0.28933,0.74314 0.74233,1.42902 1.34971,1.94579 0.87246,0.74231 2.03695,1.10414 3.18233,1.08625 1.14538,-0.0179 2.26904,-0.39922 3.24625,-0.99695 1.1326,-0.69278 2.07495,-1.66795 2.84033,-2.75281 0.76538,-1.08487 1.36085,-2.2803 1.89181,-3.49719 0.88464,-2.02747 1.59865,-4.12936 2.13203,-6.27616 l -2.7985,-5.55553 z"
         style="fill:#000000;fill-opacity:1;fill-rule:evenodd;stroke:#000000;stroke-width:1px;stroke-linecap:butt;stroke-linejoin:miter;stroke-opacity:1" />
      <path
         style="fill:#000000;fill-opacity:1;fill-rule:evenodd;stroke:#000000;stroke-width:1px;stroke-linecap:butt;stroke-linejoin:miter;stroke-opacity:1"
         d="m 396.63005,526.6487 c -0.68607,3.54164 -2.28067,6.9034 -4.58937,9.67537 -0.43743,0.52521 -0.90453,1.03369 -1.46103,1.43056 -0.55649,0.39686 -1.21159,0.67877 -1.89457,0.70587 -0.71304,0.0283 -1.41987,-0.22449 -2.00823,-0.6283 -0.58835,-0.40381 -1.06586,-0.95205 -1.46513,-1.54349 -0.80136,-1.18706 -1.30733,-2.57194 -1.45995,-3.99602 -1.43939,1.82019 -2.37213,4.03686 -2.66717,6.33858 -0.10094,0.78748 -0.12839,1.58966 -0.003,2.37355 0.1258,0.78389 0.41007,1.55099 0.88952,2.18379 0.69227,0.91368 1.76685,1.50115 2.89438,1.70784 1.12753,0.2067 2.30277,0.0516 3.38478,-0.32698 2.51488,-0.87982 4.48552,-2.9078 5.89283,-5.17014 1.01508,-1.63181 1.78616,-3.41513 2.27971,-5.27244 l 0.20681,-7.47819 z"
         id="path4223"
         inkscape:path-effect="#path-effect4225"
         inkscape:original-d="m 396.63005,526.6487 c 0,0 -2.58599,7.26757 -4.58937,9.67537 -0.8481,1.01931 -2.02962,2.13103 -3.3556,2.13643 -1.36547,0.006 -2.77519,-0.99829 -3.47336,-2.17179 -0.58324,-0.98032 -1.45995,-3.99602 -1.45995,-3.99602 0,0 -2.20012,4.06462 -2.66717,6.33858 -0.31137,1.51597 -0.19404,3.44982 0.88694,4.55734 1.49689,1.53365 4.20371,1.9149 6.27916,1.38086 2.53069,-0.65119 4.2288,-3.15534 5.89283,-5.17014 1.40698,-1.70356 2.27971,-5.27244 2.27971,-5.27244 z"
         inkscape:connector-curvature="0"
         sodipodi:nodetypes="cssscsssscc" />
      <path
         sodipodi:nodetypes="cssscsssscc"
         inkscape:connector-curvature="0"
         inkscape:original-d="m 395.62614,560.60284 c 0,0 -2.8789,4.97025 -4.55697,6.87909 -0.71039,0.80808 -1.72315,1.69449 -2.9529,1.72491 -1.26636,0.0313 -2.64946,-0.72011 -3.38515,-1.61732 -0.61458,-0.7495 -0.45086,-2.64749 -0.45086,-2.64749 0,0 -2.93953,2.77312 -3.20234,4.54768 -0.1752,1.18303 0.0786,2.68199 1.16452,3.52041 1.50369,1.161 4.04346,1.40345 5.92886,0.94781 2.29897,-0.55557 3.6866,-2.53316 5.07931,-4.1302 1.17757,-1.35033 2.09981,-4.05951 2.09981,-4.05951 z"
         inkscape:path-effect="#path-effect4229"
         id="path4227"
         d="m 395.62614,560.60284 c -0.99146,2.58938 -2.55935,4.95623 -4.55697,6.87909 -0.41757,0.40194 -0.85586,0.78644 -1.34543,1.09666 -0.48958,0.31022 -1.03385,0.54528 -1.60747,0.62825 -0.65502,0.0947 -1.33697,-0.0148 -1.93298,-0.3025 -0.59601,-0.28776 -1.10437,-0.75173 -1.45217,-1.31482 -0.48224,-0.78074 -0.64749,-1.75114 -0.45086,-2.64749 -0.88963,0.39528 -1.66896,1.03547 -2.22945,1.83143 -0.56048,0.79595 -0.90057,1.74545 -0.97289,2.71625 -0.0945,1.26874 0.29218,2.59431 1.16452,3.52041 0.72718,0.77199 1.75282,1.23092 2.8051,1.36306 1.05228,0.13213 2.12891,-0.0478 3.12376,-0.41525 2.07789,-0.76751 3.79165,-2.3278 5.07931,-4.1302 0.88863,-1.24386 1.59812,-2.6155 2.09981,-4.05951 l 0.27572,-5.16538 z"
         style="fill:#000000;fill-opacity:1;fill-rule:evenodd;stroke:#000000;stroke-width:0.84952521px;stroke-linecap:butt;stroke-linejoin:miter;stroke-opacity:1" />
      <path
         style="fill:#000000;fill-opacity:1;fill-rule:evenodd;stroke:#000000;stroke-width:0.89590365px;stroke-linecap:butt;stroke-linejoin:miter;stroke-opacity:1"
         d="m 395.62698,582.92295 c -0.21067,3.11744 -1.02934,6.19264 -2.39654,9.00219 -0.35221,0.72378 -0.74618,1.43825 -1.2934,2.02856 -0.54722,0.59031 -1.26504,1.05216 -2.06233,1.16281 -0.58701,0.0815 -1.19504,-0.0323 -1.72729,-0.29291 -0.53225,-0.26064 -0.98939,-0.66443 -1.33971,-1.14244 -0.68912,-0.9403 -0.95527,-2.17889 -0.71327,-3.31927 -1.30366,1.89327 -2.05523,4.16197 -2.13977,6.45911 -0.0287,0.78103 0.0191,1.57178 0.23485,2.32297 0.21575,0.75119 0.60758,1.46378 1.19166,1.98309 0.68823,0.61191 1.61934,0.92476 2.54025,0.91849 0.9209,-0.006 1.82767,-0.3199 2.59522,-0.82879 1.03775,-0.68802 1.81623,-1.71244 2.39558,-2.81455 0.57935,-1.10211 0.97518,-2.28929 1.38469,-3.46513 0.31907,-0.91615 0.64129,-1.83444 0.84224,-2.78352 0.20094,-0.94908 0.26288,-1.92143 0.29272,-2.89109 l 0.1951,-6.33952 z"
         id="path4231"
         inkscape:path-effect="#path-effect4233"
         inkscape:original-d="m 395.62698,582.92295 c 0,0 -1.21585,6.22744 -2.39654,9.00219 -0.49983,1.17464 -2.319,2.91801 -3.35573,3.19137 -1.0676,0.28151 -2.33207,-0.42152 -3.067,-1.43535 -0.61396,-0.84694 -0.71327,-3.31927 -0.71327,-3.31927 0,0 -2.13977,4.12665 -2.13977,6.45911 0,1.55497 0.40263,3.43455 1.42651,4.30606 1.41783,1.20682 3.59723,1.03488 5.13547,0.0897 1.87564,-1.15246 2.80197,-3.96032 3.78027,-6.27968 0.82718,-1.96107 1.13496,-5.67461 1.13496,-5.67461 z"
         inkscape:connector-curvature="0"
         sodipodi:nodetypes="cssscsssscc" />
      <path
         sodipodi:nodetypes="cssscsssscc"
         inkscape:connector-curvature="0"
         inkscape:original-d="m 395.7688,615.66709 c 0,0 -2.2761,6.78635 -3.33333,8.25232 -0.44756,0.6206 -1.11545,1.32486 -2.04377,1.46929 -0.95598,0.14873 -2.08822,-0.22271 -2.74631,-0.75834 -0.54975,-0.44746 -0.63868,-1.75366 -0.63868,-1.75366 0,0 -1.91602,2.18022 -1.91602,3.41252 0,0.82154 0.36052,1.81457 1.27735,2.27501 1.26957,0.6376 3.22108,0.54676 4.59847,0.0474 1.67952,-0.60888 2.50898,-2.09235 3.38498,-3.31773 0.74069,-1.03609 1.27254,-3.01595 1.27254,-3.01595 z"
         inkscape:path-effect="#path-effect4237"
         id="path4235"
         d="m 395.7688,615.66709 c -0.11175,3.02501 -1.31276,5.99833 -3.33333,8.25232 -0.56747,0.63302 -1.22829,1.22902 -2.04377,1.46929 -0.4807,0.14163 -1.00065,0.15071 -1.48429,0.0195 -0.48364,-0.13124 -0.92916,-0.40319 -1.26202,-0.77781 -0.42317,-0.47627 -0.65645,-1.1168 -0.63868,-1.75366 -0.62844,0.29794 -1.16076,0.7948 -1.50126,1.40124 -0.3405,0.60644 -0.48756,1.31961 -0.41476,2.01128 0.0937,0.88987 0.56078,1.73914 1.27735,2.27501 0.64734,0.4841 1.47192,0.70299 2.28003,0.68392 0.80811,-0.0191 1.60025,-0.26556 2.31844,-0.63652 1.42179,-0.73437 2.55949,-1.94684 3.38498,-3.31773 0.56478,-0.93794 0.99473,-1.95693 1.27254,-3.01595 l 0.14477,-6.61086 z"
         style="fill:#000000;fill-opacity:1;fill-rule:evenodd;stroke:#000000;stroke-width:0.61621153px;stroke-linecap:butt;stroke-linejoin:miter;stroke-opacity:1" />
    </g>
    <g
       style="font-style:normal;font-variant:normal;font-weight:normal;font-stretch:normal;font-size:146.47116089px;line-height:125%;font-family:Junicode;-inkscape-font-specification:'Junicode, Normal';text-align:start;letter-spacing:0px;word-spacing:0px;writing-mode:lr-tb;text-anchor:start;fill:#000000;fill-opacity:1;stroke:none;stroke-width:1px;stroke-linecap:butt;stroke-linejoin:miter;stroke-opacity:1"
       id="text4185">
      <path
         d="m -833.6101,-450.06476 0,-75.09508 q 0,-3.28988 -3.43292,-3.28988 l -10.87091,0 q -18.95256,0 -18.95256,19.73928 0,1.00126 -2.71773,1.00126 -2.71773,0 -2.71773,-1.00126 l 0,-22.8146 q 0,-2.36013 5.5785,-2.36013 7.22343,0 18.88104,0.21455 11.65762,0.14304 19.95384,0.14304 8.29622,0 19.88231,-0.14304 11.5861,-0.21455 19.66776,-0.21455 5.57849,0 5.57849,2.36013 l 0,22.8146 q 0,1.00126 -2.71772,1.00126 -2.71773,0 -2.71773,-1.00126 0,-19.73928 -18.73801,-19.73928 l -11.5861,0 q -3.64747,0 -3.64747,3.28988 l 0,75.09508 q 0,8.36773 13.51711,8.36773 1.00127,0 1.00127,2.71773 0,2.71773 -1.00127,2.71773 -6.57976,-0.50064 -19.52472,-0.50064 -12.94496,0 -19.52472,0.50064 -1.00127,0 -1.00127,-2.71773 0,-2.71773 1.00127,-2.71773 14.08927,0 14.08927,-8.36773 z"
         id="path8494"
         style="" />
      <path
         d="m -714.53076,-445.84514 q 0,5.5785 9.08293,5.5785 1.00127,0 1.00127,2.07405 0,2.00254 -1.00127,2.00254 -5.86457,-0.57216 -14.16079,-0.57216 -8.29622,0 -13.94623,0.57216 -1.00126,0 -1.00126,-2.00254 0,-2.07405 1.00126,-2.07405 8.08166,0 8.08166,-5.5785 l 0,-30.03803 q 0,-6.93735 -4.21962,-11.80065 -4.21963,-4.8633 -10.22724,-4.8633 -6.00761,0 -10.58483,3.64747 -4.57722,3.64748 -4.57722,7.15192 l 0,35.90259 q 0,5.5785 7.93862,5.5785 1.00127,0 1.00127,2.07405 0,2.00254 -1.00127,2.00254 -7.50951,-0.57216 -14.66142,-0.57216 -7.15191,0 -12.87344,0.57216 -1.00127,0 -1.00127,-2.00254 0,-2.07405 1.00127,-2.07405 8.65381,0 8.65381,-5.5785 l 0,-74.88052 q 0,-9.94115 -6.57976,-9.94115 -1.21582,0 -1.21582,-1.93102 0,-2.00254 1.21582,-2.00254 2.36013,0 6.93736,-2.43165 4.64874,-2.43165 7.00887,-4.29114 2.28861,-1.8595 3.14684,-1.78798 0.85823,0 0.85823,1.21582 -0.42911,7.65255 -0.42911,11.80066 l 0,36.76083 q 0,1.78798 1.1443,1.78798 0.64368,0 1.21583,-0.57216 6.50824,-6.86583 17.23611,-6.86583 10.37027,0 15.66268,7.58102 5.29242,7.50951 5.29242,15.37662 l 0,30.18106 z"
         id="path8496"
         style="" />
      <path
         d="m -698.79655,-467.58695 q 0,-12.7304 8.08166,-22.02789 8.15318,-9.369 18.23738,-9.369 10.0842,0 16.30636,7.00887 6.22216,7.00888 6.22216,11.44306 0,4.43419 -3.64747,4.50571 l -32.11209,0 q -2.14557,0 -2.14557,4.72026 0,11.44306 5.43545,19.66776 5.50698,8.15318 15.16206,8.15318 7.22343,0 14.37534,-4.29115 0.3576,-0.21456 0.78671,-0.21456 0.85823,0 1.5019,0.78671 0.50064,0.50064 0.50064,1.5019 0,0.3576 -0.28608,0.57216 -11.30002,10.01267 -22.24245,10.01267 -10.94242,0 -18.59497,-9.86964 -7.58103,-9.86963 -7.58103,-22.60004 z m 12.58737,-14.2323 q 0,1.00126 1.71646,1.00126 l 22.95764,0 q 1.07278,0 1.07278,-1.21582 0,-3.14684 -3.93355,-7.93862 -3.86203,-4.79178 -8.08166,-4.79178 -4.64874,0 -8.08166,3.14684 -3.3614,3.07532 -5.43545,8.72533 -0.21456,0.57215 -0.21456,1.07279 z"
         id="path8498"
         style="" />
      <path
         d="m -586.44001,-475.31101 0,-45.27161 q 0,-8.2247 -13.23103,-8.2247 -0.92975,0 -0.92975,-2.71772 0,-2.71773 0.92975,-2.71773 3.14684,0.3576 19.73927,0.3576 16.59244,0 19.88232,-0.3576 0.92975,0 0.92975,2.71773 0,2.71772 -0.92975,2.71772 -14.73294,0 -14.73294,8.2247 l 0,45.12857 q 0,21.52725 7.43799,28.39309 7.50951,6.86584 18.59497,6.86584 13.80319,0 21.02662,-7.15192 7.29495,-7.22343 7.29495,-24.24498 l 0,-48.9906 q 0,-8.2247 -13.44559,-8.2247 -0.92975,0 -0.92975,-2.71772 0,-2.71773 0.92975,-2.71773 3.21836,0.3576 17.09307,0.3576 13.87471,0 17.09307,-0.3576 0.92975,0 0.92975,2.71773 0,2.71772 -0.92975,2.71772 -12.87344,0 -12.87344,8.2247 l 0,31.68297 q 0,25.17473 -3.79052,34.04311 -3.71899,8.79685 -11.87217,14.44686 -8.08166,5.57849 -22.31397,5.57849 -13.66015,0 -21.52725,-4.43419 -7.79559,-4.5057 -11.08547,-13.44559 -3.28988,-9.01141 -3.28988,-22.60004 z"
         id="path8500"
         style="" />
      <path
         d="m -451.34038,-454.35591 q 0,5.79305 -3.0038,10.37027 -3.0038,4.50571 -8.2247,6.79432 -5.22089,2.21709 -11.01394,2.21709 -11.15699,0 -17.16459,-4.29115 -1.43039,-4.5057 -1.43039,-12.30129 l 0,-3.21836 q 0,-1.07278 1.64494,-1.07278 1.71646,0 1.8595,1.07278 0.3576,2.78925 4.64874,9.01141 4.29115,6.22217 12.80193,6.22217 4.21963,0 7.8671,-2.64621 3.64748,-2.64621 3.64748,-7.65255 0,-5.00633 -3.07533,-8.01014 -3.07532,-3.07532 -10.94242,-5.14937 -7.86711,-2.14558 -12.65889,-6.79432 -4.79178,-4.64874 -4.79178,-11.80066 0,-7.29495 6.00761,-12.30129 6.0076,-5.07785 15.23357,-5.07785 9.22597,0 14.80446,2.57469 2.21709,6.0076 2.21709,12.15825 l 0,0.78671 q 0,1.00126 -1.57342,1.00126 -1.57342,0 -1.78798,-1.00126 -0.71519,-3.86204 -4.8633,-7.50951 -4.07659,-3.64748 -9.58356,-3.64748 -5.50697,0 -8.86837,2.71773 -3.3614,2.64621 -3.3614,7.22343 0,4.29115 2.36013,6.7228 2.43165,2.36013 11.9437,5.14938 9.51204,2.71772 13.37407,6.93735 3.93355,4.14811 3.93355,11.51458 z"
         id="path8502"
         style="" />
      <path
         d="m -441.04163,-467.58695 q 0,-12.7304 8.08166,-22.02789 8.15318,-9.369 18.23737,-9.369 10.0842,0 16.30636,7.00887 6.22217,7.00888 6.22217,11.44306 0,4.43419 -3.64748,4.50571 l -32.11208,0 q -2.14558,0 -2.14558,4.72026 0,11.44306 5.43546,19.66776 5.50697,8.15318 15.16205,8.15318 7.22343,0 14.37534,-4.29115 0.3576,-0.21456 0.78671,-0.21456 0.85823,0 1.50191,0.78671 0.50063,0.50064 0.50063,1.5019 0,0.3576 -0.28608,0.57216 -11.30002,10.01267 -22.24244,10.01267 -10.94243,0 -18.59498,-9.86964 -7.58102,-9.86963 -7.58102,-22.60004 z m 12.58736,-14.2323 q 0,1.00126 1.71646,1.00126 l 22.95764,0 q 1.07279,0 1.07279,-1.21582 0,-3.14684 -3.93356,-7.93862 -3.86203,-4.79178 -8.08166,-4.79178 -4.64874,0 -8.08166,3.14684 -3.3614,3.07532 -5.43545,8.72533 -0.21456,0.57215 -0.21456,1.07279 z"
         id="path8504"
         style="" />
      <path
         d="m -340.98641,-467.37239 q 0,-12.01521 8.93989,-21.81333 8.93989,-9.79812 21.38422,-9.79812 12.44432,0 21.09814,9.7266 8.65381,9.86964 8.65381,22.457 0,12.58737 -7.93862,22.17093 -7.93863,9.51204 -21.24118,9.51204 -13.30256,0 -22.09941,-10.08419 -8.79685,-10.15572 -8.79685,-22.17093 z m 11.65761,0.42911 q 0,12.73041 5.79305,19.95384 5.86457,7.15191 12.58737,7.15191 6.86583,0 12.58736,-7.22343 5.79305,-7.29495 5.79305,-19.88232 0,-12.58736 -5.72153,-20.16839 -5.72153,-7.58103 -12.51584,-7.65254 -6.86584,0 -12.73041,7.58102 -5.79305,7.50951 -5.79305,20.23991 z"
         id="path8506"
         style="" />
      <path
         d="m -261.38558,-445.84514 0,-42.91147 q 0,-2.64621 -2.64621,-2.64621 l -5.29241,0 q -1.07279,0 -1.07279,-1.93101 0,-2.00254 1.07279,-2.00254 7.93862,0 7.93862,-6.15064 l 0,-1.35887 q 0,-17.87978 10.08419,-29.03676 10.0842,-11.2285 23.60131,-11.2285 3.79052,0 6.86584,0.92975 3.0038,0.92975 4.72026,2.78924 1.71646,1.78798 1.71646,4.79178 0,2.14558 -2.00253,4.07659 -1.93102,1.93102 -4.14811,1.93102 -4.00507,0 -7.29495,-3.86203 -3.21836,-3.93355 -7.0804,-3.93355 -7.58102,0 -11.58609,6.07912 -3.93356,6.07913 -3.93356,14.80446 l 0,15.30509 q 0,2.64621 2.64621,2.64621 l 14.51838,0 q 1.07279,0 1.07279,3.07532 0,3.07532 -1.07279,3.07532 l -14.51838,0 q -2.64621,0 -2.64621,2.64621 l 0,42.91147 q 0,5.5785 10.58483,5.5785 1.00127,0 1.00127,2.07405 0,2.00254 -1.00127,2.00254 -6.07912,-0.57216 -15.09053,-0.57216 -9.01141,0 -14.80446,0.57216 -1.00127,0 -1.00127,-2.00254 0,-2.07405 1.00127,-2.07405 8.36774,0 8.36774,-5.5785 z"
         id="path8508"
         style="" />
      <path
         d="m -67.783348,-467.37239 q 0,-12.01521 8.93989,-21.81333 8.93989,-9.79812 21.384217,-9.79812 12.444327,0 21.098141,9.7266 8.6538137,9.86964 8.6538137,22.457 0,12.58737 -7.9386227,22.17093 -7.938622,9.51204 -21.241179,9.51204 -13.302556,0 -22.099408,-10.08419 -8.796852,-10.15572 -8.796852,-22.17093 z m 11.657616,0.42911 q 0,12.73041 5.793049,19.95384 5.864568,7.15191 12.587366,7.15191 6.865835,0 12.587365,-7.22343 5.793049,-7.29495 5.793049,-19.88232 0,-12.58736 -5.72153,-20.16839 -5.72153,-7.58103 -12.515846,-7.65254 -6.865836,0 -12.730404,7.58102 -5.793049,7.50951 -5.793049,20.23991 z"
         id="path8510"
         style="" />
      <path
         d="m 38.994687,-498.98384 q 2.288612,0 3.790514,0.78671 1.501901,0.78671 2.789245,2.43165 1.287345,1.64494 1.287345,4.79178 0,0.85823 -0.715192,2.43165 -0.715191,1.57342 -2.217092,2.71773 -1.430383,1.1443 -3.003803,1.1443 -1.573421,0 -4.863301,-1.71646 -3.21836,-1.78798 -4.8633,-1.78798 -4.362666,0 -7.36647,4.36267 -3.003803,4.29115 -3.003803,11.72914 l 0,26.24751 q 0,5.5785 10.799388,5.5785 1.001267,0 1.001267,2.07405 0,2.00254 -1.001267,2.00254 -6.007606,-0.57216 -15.019016,-0.57216 -9.0114091,0 -14.9474962,0.57216 -1.00126769,0 -1.00126769,-2.00254 0,-2.07405 1.00126769,-2.07405 8.224699,0 8.224699,-5.5785 l 0,-33.04183 q 0,-8.08166 -6.0076062,-8.08166 -1.2158251,0 -1.2158251,-2.00254 0,-2.00253 1.2158251,-2.00253 2.7177266,0 7.7955844,-3.43292 5.077857,-3.43292 6.222163,-4.43418 1.215825,-1.07279 2.002536,-1.07279 1.215825,0 1.215825,1.78798 -0.286077,3.50443 -0.286077,6.43672 0,2.86076 0.929749,2.86076 1.001268,0 2.002535,-1.43038 6.365202,-8.72533 15.233573,-8.72533 z"
         id="path8512"
         style="" />
      <path
         d="m 94.708118,-488.47053 q 1.859497,-2.07406 1.859497,-3.3614 0,-2.36013 -6.865835,-2.36013 -1.001268,0 -1.001268,-1.8595 0,-1.93102 1.001268,-1.93102 6.579759,0.42912 13.58863,0.42912 7.00888,0 12.44433,-0.42912 1.00127,0 1.00127,1.93102 0,1.8595 -1.00127,1.8595 -6.57976,0 -11.65762,4.8633 l -15.23357,14.66142 q -1.358863,1.28734 -1.358863,2.43165 0,1.1443 1.215825,2.50317 l 22.957638,26.24752 q 2.78925,3.21836 9.22597,3.21836 1.00126,0 1.00126,2.07405 0,2.00254 -1.00126,2.00254 -6.79432,-0.57216 -14.44687,-0.57216 -7.652542,0 -14.375339,0.57216 -1.001268,0 -1.001268,-2.00254 0,-2.07405 1.001268,-2.07405 5.864568,0 5.864568,-2.07406 0,-0.92975 -2.217093,-3.50444 L 79.90366,-464.01099 q -1.144306,-1.28735 -2.574688,-1.71646 -1.358864,-0.50064 -2.431651,-0.50064 -1.072786,0 -1.716458,0.57216 -0.643673,0.57215 -0.643673,2.50317 l 0,17.30762 q 0,5.5785 8.510776,5.5785 1.001268,0 1.001268,2.07405 0,2.00254 -1.001268,2.00254 -7.437989,-0.57216 -14.160786,-0.57216 -6.722798,0 -13.517114,0.57216 -1.001268,0 -1.001268,-2.00254 0.07152,-2.07405 1.001268,-2.07405 8.224699,0 8.224699,-5.5785 l 0,-74.95203 q 0,-9.86964 -6.579759,-9.86964 -1.287345,0 -1.287345,-2.00254 0.07152,-2.00253 1.287345,-2.00253 2.360131,0 6.937354,-2.43165 4.648743,-2.43165 7.008874,-4.21963 2.360131,-1.78798 3.146842,-1.78798 0.858229,0 0.858229,1.14431 -0.429115,7.5095 -0.429115,11.87217 l 0,55.99947 q 0,3.07532 3.28988,3.07532 3.28988,0 4.791781,-1.64494 l 14.089267,-15.80572 z"
         id="path8514"
         style="" />
      <path
         d="m 129.25183,-443.77108 q 0,-3.64748 2.57469,-5.86457 2.57468,-2.21709 6.50824,-2.21709 3.93355,0 6.07912,2.64621 2.14557,2.6462 2.14557,6.29368 0,3.57595 -2.50317,5.79305 -2.43165,2.14557 -6.22216,2.14557 -3.79051,0 -6.22216,-2.57469 -2.36013,-2.57469 -2.36013,-6.22216 z"
         id="path8516"
         style="" />
    </g>
  </g>
</svg>
